<svg width="68" height="68" fill="none" xmlns="http://www.w3.org/2000/svg"><g clip-path="url(#clip0_5_105)"><path fill="#FFD645" d="M46 27h12v30H46zM11 43h27v14H11zm0-16h27v6H11z"/><path d="M62.023 0H5.977A5.983 5.983 0 000 5.977v56.046A5.983 5.983 0 005.977 68h56.046A5.983 5.983 0 0068 62.023V5.977A5.983 5.983 0 0062.023 0zM3.984 5.977c0-1.099.894-1.993 1.993-1.993h9.96v11.954H3.985V5.976zm60.032 56.046a1.994 1.994 0 01-1.993 1.993H5.977a1.994 1.994 0 01-1.993-1.993V19.922h60.032v42.101zm0-46.086H19.922V3.985h42.101c1.099 0 1.993.894 1.993 1.993v9.96z" fill="#000"/><path d="M58.04 7.969h-3.985a1.992 1.992 0 000 3.984h3.984a1.992 1.992 0 000-3.984zm-12.087 0H41.97a1.992 1.992 0 100 3.984h3.984a1.992 1.992 0 000-3.984zM34 7.969h-3.984a1.992 1.992 0 000 3.984H34a1.992 1.992 0 000-3.984zm3.984 16.071H9.961c-1.1 0-1.992.891-1.992 1.991V34c0 1.1.892 1.992 1.992 1.992h28.023c1.1 0 1.993-.892 1.993-1.992v-7.969c0-1.1-.892-1.992-1.993-1.992zm-1.992 7.968H11.953v-3.985h24.04v3.985zM58.04 24.04H45.952c-1.1 0-1.992.891-1.992 1.991V58.04c0 1.1.892 1.992 1.992 1.992H58.04c1.1 0 1.992-.892 1.992-1.992V26.031c0-1.1-.892-1.992-1.992-1.992zm-1.993 32.007h-8.102V28.023h8.102v28.024zm-18.063-16.07H9.961c-1.1 0-1.992.892-1.992 1.992v16.07c0 1.1.892 1.992 1.992 1.992h28.023c1.1 0 1.993-.892 1.993-1.992V41.97c0-1.1-.892-1.992-1.993-1.992zm-1.992 16.07H11.953V43.96h24.04v12.086z" fill="#000"/></g><defs><clipPath id="clip0_5_105"><path fill="#fff" d="M0 0h68v68H0z"/></clipPath></defs></svg>