<svg width="68" height="68" fill="none" xmlns="http://www.w3.org/2000/svg"><g clip-path="url(#clip0_5_30)"><path d="M30.5 24l9.093 12H21.407L30.5 24z" fill="#FFD645"/><path d="M42 17l12.99 19.5H29.01L42 17z" fill="#FFD645"/><path d="M66.008 47.945H1.992c-1.1 0-1.992.892-1.992 1.992v16.07C0 67.109.892 68 1.992 68h64.016c1.1 0 1.992-.892 1.992-1.992v-16.07c0-1.1-.892-1.993-1.992-1.993zm-1.992 16.07h-4.118v-6.109a1.992 1.992 0 00-3.984 0v6.11H51.93V61.89a1.992 1.992 0 00-3.985 0v2.125h-3.984v-6.11a1.992 1.992 0 00-3.984 0v6.11h-3.985V61.89a1.992 1.992 0 00-3.984 0v2.125h-3.985v-6.11a1.992 1.992 0 00-3.984 0v6.11h-3.984V61.89a1.992 1.992 0 00-3.985 0v2.125h-3.984v-6.11a1.992 1.992 0 00-3.984 0v6.11H3.984V51.93h60.032v12.086zm1.992-51.929c1.1 0 1.992-.892 1.992-1.992V1.992C68 .892 67.108 0 66.008 0h-8.102c-1.1 0-1.992.892-1.992 1.992v1.992H12.086V1.992c0-1.1-.892-1.992-1.992-1.992H1.992C.892 0 0 .892 0 1.992v8.102c0 1.1.892 1.992 1.992 1.992h1.992v19.922H1.992C.892 32.008 0 32.9 0 34v7.969c0 1.1.892 1.992 1.992 1.992h8.102c1.1 0 1.992-.892 1.992-1.992v-1.992h43.828v1.992c0 1.1.892 1.992 1.992 1.992h8.102c1.1 0 1.992-.892 1.992-1.992V34c0-1.1-.892-1.992-1.992-1.992h-1.992V12.086h1.992zM3.984 3.984h4.118v4.118H3.984V3.984zm4.118 35.993H3.984v-3.985h4.118v3.985zm13.945-3.985l7.969-10.625 7.968 10.625H22.047zm20.918 0l-6.994-9.325 5.998-8.997 12.215 18.322h-11.22zm13.662-3.518l-13-19.501a1.994 1.994 0 00-3.316 0l-6.876 10.313-1.826-2.434a1.993 1.993 0 00-3.187 0l-11.356 15.14h-4.98V34c0-1.1-.892-1.992-1.992-1.992H7.969V12.086h2.125c1.1 0 1.992-.892 1.992-1.992V7.969h43.828v2.125c0 1.1.892 1.992 1.992 1.992h2.125v19.922h-2.125c-.487 0-.933.175-1.28.466zm7.389 7.503h-4.118v-3.985h4.118v3.985zM59.898 8.102V3.984h4.118v4.118h-4.118z" fill="#000"/><path d="M18.063 12.086a5.983 5.983 0 00-5.977 5.976 5.983 5.983 0 005.976 5.977 5.983 5.983 0 005.977-5.977 5.983 5.983 0 00-5.977-5.976zm0 7.969a1.994 1.994 0 01-1.993-1.992c0-1.099.894-1.993 1.992-1.993 1.099 0 1.993.894 1.993 1.992a1.994 1.994 0 01-1.992 1.993z" fill="#000"/></g><defs><clipPath id="clip0_5_30"><path fill="#fff" d="M0 0h68v68H0z"/></clipPath></defs></svg>