<svg width="42" height="42" fill="none" xmlns="http://www.w3.org/2000/svg"><path d="M35.283.86h-28.4C3.64.86 1 3.491 1 6.726V35.05c0 3.236 2.64 5.869 5.884 5.869h28.399c3.244 0 5.884-2.633 5.884-5.869V6.727c0-3.235-2.64-5.868-5.884-5.868zm3.53 34.19a3.53 3.53 0 01-3.53 3.521h-28.4a3.53 3.53 0 01-3.53-3.52V6.726a3.53 3.53 0 013.53-3.52h28.4a3.53 3.53 0 013.53 3.52V35.05z" fill="#070707" stroke="#070707" stroke-width=".5"/><mask id="a" fill="#fff"><path d="M32.128 29.895h-4.312v-7.201c0-.497-.036-.988-.161-1.473-.515-1.998-2.741-1.881-3.627-.934-.445.476-.735 1.014-.748 1.679-.003.158-.012.316-.012.474v7.454h-4.304V16.53h4.302v1.793l.034.015.092-.125c.432-.599.927-1.13 1.585-1.488.736-.402 1.53-.536 2.356-.512.895.026 1.744.227 2.51.709.98.617 1.579 1.52 1.929 2.604.273.844.362 1.716.363 2.598.002 2.538 0 5.077 0 7.616 0 .05-.004.1-.007.156z"/></mask><path d="M32.128 29.895h-4.312v-7.201c0-.497-.036-.988-.161-1.473-.515-1.998-2.741-1.881-3.627-.934-.445.476-.735 1.014-.748 1.679-.003.158-.012.316-.012.474v7.454h-4.304V16.53h4.302v1.793l.034.015.092-.125c.432-.599.927-1.13 1.585-1.488.736-.402 1.53-.536 2.356-.512.895.026 1.744.227 2.51.709.98.617 1.579 1.52 1.929 2.604.273.844.362 1.716.363 2.598.002 2.538 0 5.077 0 7.616 0 .05-.004.1-.007.156z" fill="#070707"/><path d="M32.128 29.895v.031h.029l.001-.029-.03-.002zm-4.312 0h-.03v.031h.03v-.03zm0-7.201h.031-.03zm-.161-1.473l.03-.007-.03.008zm-3.627-.934l.023.02-.023-.02zm-.748 1.679h-.03.03zm-.012.474h.03-.03zm0 7.454v.03h.03v-.03h-.03zm-4.304 0h-.03v.03h.03v-.03zm0-13.365v-.03h-.03v.03h.03zm4.302 0h.03v-.03h-.03v.03zm0 1.793h-.031v.02l.018.008.012-.028zm.034.015l-.012.028.022.01.015-.02-.025-.018zm.092-.125l.025.018-.025-.018zm1.585-1.488l.015.026-.015-.026zm2.356-.512l.001-.03v.03zm2.51.709l.016-.026-.016.026zm1.929 2.604l-.03.01.03-.01zm.363 2.598h.03-.03zm0 7.616h-.03.03zm-.007.126h-4.312v.061h4.312v-.061zm-4.281.03v-.198h-.061v.199h.061zm0-.198v-7.003h-.06c-.002 2.334-.001 4.668-.001 7.003h.061zm0-7.003c0-.499-.037-.992-.162-1.48l-.06.015c.124.481.161.97.161 1.465h.061zm-.162-1.48c-.261-1.012-.957-1.49-1.7-1.595-.74-.103-1.529.165-1.98.647l.046.042c.435-.466 1.203-.73 1.925-.628.72.1 1.395.563 1.65 1.55l.059-.016zm-3.68-.948c-.448.48-.743 1.025-.755 1.7h.06c.013-.655.3-1.186.74-1.658l-.044-.042zm-.755 1.7c-.003.155-.012.317-.012.474h.06c0-.158.01-.313.013-.474h-.061zm-.012.474l-.001 7.249h.061V22.44h-.06zm-.001 7.249v.206h.061v-.205h-.061zm.03.175h-4.302v.06h4.303v-.06zm-4.273.03V16.529h-.06v13.365h.06zm-.03-13.334h4.301v-.061h-4.3v.06zm4.27-.03v1.791h.062v-1.793h-.061zm.02 1.82l.034.015.024-.056-.034-.015-.025.056zm.07.005c.03-.04.063-.083.093-.125l-.05-.036-.092.125.05.036zm.093-.125c.43-.597.922-1.124 1.575-1.48l-.03-.053c-.663.362-1.162.897-1.594 1.497l.05.036zm1.575-1.48c.73-.398 1.518-.532 2.34-.508l.002-.06c-.83-.025-1.63.11-2.371.515l.029.053zm2.34-.508c.891.026 1.735.227 2.494.704l.033-.051c-.771-.485-1.626-.688-2.525-.714l-.002.061zm2.494.704c.974.613 1.568 1.51 1.916 2.588l.059-.018c-.352-1.09-.954-2-1.942-2.621l-.033.052zm1.916 2.588c.272.84.361 1.709.362 2.589h.062c-.001-.885-.091-1.76-.365-2.608l-.058.02zm.362 2.589c.002 2.538.001 5.077 0 7.616h.062c0-2.539.002-5.078 0-7.616h-.062zm0 7.616c0 .049-.004.096-.007.155l.061.003c.003-.056.008-.107.008-.158h-.061z" fill="#070707" mask="url(#a)"/><path d="M16.319 29.887h-4.25V16.542h4.25v13.345zM14.377 9.888c.67 0 1.242.237 1.646.644.404.406.643.982.645 1.659.002.67-.238 1.24-.648 1.643-.41.404-.991.641-1.675.641-1.332.001-2.281-.95-2.284-2.29-.002-1.34.96-2.295 2.316-2.297z" fill="#070707" stroke="#070707" stroke-width=".031"/></svg>