<svg width="40" height="40" fill="none" xmlns="http://www.w3.org/2000/svg"><path d="M30.372 7.119l.305-.385-.378-.312a16.673 16.673 0 00-10.67-3.845 16.9 16.9 0 00-4.097.524l-.727.182.447.602c1.39 1.87 3.388 4.696 5.78 9.121l.207.383.408-.152c4.527-1.68 7.24-4.252 8.725-6.118zm-17.3-2.758l-.246-.323-.366.173c-4.496 2.12-7.903 6.172-9.247 11.119l-.166.61.632.02c2.476.078 8.395-.038 14.952-1.795l.619-.166-.311-.56c-2.543-4.583-4.682-7.517-5.868-9.078zM32.524 8.62l-.387-.46-.382.465c-1.656 2.021-4.531 4.646-9.084 6.428l-.506.198.24.488a72.893 72.893 0 012.801 6.427l.143.379.4-.061a38.401 38.401 0 018.637-.323c.56.046.92.098 1.34.159l.276.04.511.072.055-.514A17.619 17.619 0 0032.526 8.62zm-12.147 7.627l-.185-.371-.399.113c-7.713 2.192-14.508 2.125-16.624 2.04l-.482-.02-.037.48-.002.034c-.037.477-.074.966-.074 1.486 0 5.233 2.264 9.905 5.835 13.102l.373.334.333-.373a49.726 49.726 0 013.556-3.608l.002-.002c2.746-2.531 6.28-5.21 10.128-6.379l.517-.157-.196-.503a74.489 74.489 0 00-2.745-6.176zm9.49 7.896h-.006a38.167 38.167 0 00-3.182.293l-.594.08.185.57c.924 2.844 1.688 5.856 2.181 8.99l.125.789.655-.456a17.322 17.322 0 006.719-9.386l.165-.57-.59-.066c-1.46-.165-3.31-.332-5.658-.244zm-5.656 1.186l-.154-.454-.46.134c-3.38.984-6.918 3.535-9.598 5.995-1.295 1.179-2.341 2.298-3.18 3.214l-.414.45.524.316c2.545 1.535 5.501 2.437 8.69 2.437a16.85 16.85 0 006.714-1.396l.348-.15-.051-.377c-.484-3.573-1.339-6.98-2.42-10.17zM.576 19.999C.576 9.246 9.143.5 19.63.5c10.487 0 19.054 8.746 19.054 19.499 0 10.753-8.567 19.499-19.054 19.499C9.143 39.498.576 30.752.576 19.999z" fill="#070707" stroke="#070707"/></svg>